<svg id="Layer_1" data-name="Layer 1" xmlns="http://www.w3.org/2000/svg" xmlns:xlink="http://www.w3.org/1999/xlink" viewBox="0 0 924.88 500"><defs><style>.cls-1{fill:none;stroke:url(#linear-gradient);}.cls-1,.cls-2{stroke-miterlimit:10;}.cls-2{fill:#0042a9;stroke:url(#linear-gradient-2);}.cls-3{fill:url(#linear-gradient-3);}.cls-4{font-size:48px;fill:#fff;font-family:Roboto-Bold, Roboto;font-weight:700;}.cls-5{letter-spacing:-0.04em;}</style><linearGradient id="linear-gradient" x1="152.76" y1="250" x2="772.12" y2="250" gradientUnits="userSpaceOnUse"><stop offset="0" stop-color="#0741a5"/><stop offset="1" stop-color="#0070bc"/></linearGradient><linearGradient id="linear-gradient-2" x1="432.38" x2="772.12" xlink:href="#linear-gradient"/><linearGradient id="linear-gradient-3" x1="222.81" y1="251.61" x2="373.33" y2="251.61" gradientUnits="userSpaceOnUse"><stop offset="0.09" stop-color="#0042a9"/><stop offset="0.34" stop-color="#004bad"/><stop offset="0.75" stop-color="#0065b7"/><stop offset="0.92" stop-color="#0071bc"/></linearGradient></defs><title>Final Logo</title><rect class="cls-1" x="153.26" y="117.65" width="618.35" height="264.71"/><rect class="cls-2" x="432.88" y="117.65" width="338.74" height="264.71"/><path class="cls-3" d="M370.8,297.09a77.4,77.4,0,0,0-113-97.13c1.83-11.69,6.5-27,18.15-38.66H238.3a24.83,24.83,0,0,0-24.83,24.83h0V292.44a70.15,70.15,0,0,1-13.91,41.93l-4.28,5.73h34.14a27.32,27.32,0,0,0,24-14.24,77.28,77.28,0,0,0,89.15,3.66l5.34,5.34a24.1,24.1,0,0,0,34.08,0l13.29-13.29Zm-70.22,8.46a41.07,41.07,0,1,1,41.07-41.07c0,1.12-.06,2.22-.15,3.31l-17.26-17.26a24.1,24.1,0,0,0-34.08,0l-13.29,13.29,38.83,38.84A40.85,40.85,0,0,1,300.58,305.55Z"/><text class="cls-4" transform="translate(460.88 271.31)">Best Q <tspan class="cls-5" x="0" y="57.6">T</tspan><tspan x="27.61" y="57.6">echnologies</tspan></text></svg>